<?xml version="1.0" ?><svg viewBox="0 0 32 32" xmlns="http://www.w3.org/2000/svg"><defs><style>.cls-1{fill:none;}</style></defs><title/><g id="DRIBBBLE"><rect class="cls-1" height="32" id="Frame" width="32" x="0.24"/><g data-name="Dribbble" id="Dribbble-2"><path d="M17.93,16.9a22.24761,22.24761,0,0,0-.9-2.21,11.99956,11.99956,0,0,1-4.34.81,11.94313,11.94313,0,0,1-5-1.09A8.32564,8.32564,0,0,0,7.54,16a8.69954,8.69954,0,0,0,3.13,6.68A12.019,12.019,0,0,1,17.93,16.9Z"/><path d="M16.45,13.52a24.55407,24.55407,0,0,0-3.92-5.39,8.72893,8.72893,0,0,0-4.5,5A10.563,10.563,0,0,0,12.69,14.2,10.67147,10.67147,0,0,0,16.45,13.52Z"/><path d="M11.73,23.44A8.63876,8.63876,0,0,0,16.24,24.7a8.76382,8.76382,0,0,0,3.08-.56,23.75558,23.75558,0,0,0-.99-6A10.78627,10.78627,0,0,0,11.73,23.44Z"/><path d="M21.71,9.24A8.66262,8.66262,0,0,0,16.24,7.3a8.42784,8.42784,0,0,0-2.37.33,26.07417,26.07417,0,0,1,3.77,5.35A10.60979,10.60979,0,0,0,21.71,9.24Z"/><path d="M19.61,17.86a25.19819,25.19819,0,0,1,.98,5.67,8.66989,8.66989,0,0,0,4.03-5.21,10.54531,10.54531,0,0,0-3.43-.57A11.75223,11.75223,0,0,0,19.61,17.86Z"/><path d="M16.24,2a14,14,0,1,0,14,14A14,14,0,0,0,16.24,2Zm9.88,15.51a7.91441,7.91441,0,0,1-.29,1.3,9.97542,9.97542,0,0,1-5.19,6.17,8.74776,8.74776,0,0,1-1.31.53,9.96723,9.96723,0,0,1-8.13-.88,9.19084,9.19084,0,0,1-1.1-.74005A9.98543,9.98543,0,0,1,6.24,16a10.13961,10.13961,0,0,1,.25-2.22,9.311,9.311,0,0,1,.39-1.3,9.992,9.992,0,0,1,4.68-5.31,8.89075,8.89075,0,0,1,1.3-.58,9.97665,9.97665,0,0,1,9.49005,1.5,9.65878,9.65878,0,0,1,1.02.9A9.97886,9.97886,0,0,1,26.24,16,9.416,9.416,0,0,1,26.12,17.51Z"/><path d="M18.22,14.15a23.9004,23.9004,0,0,1,1,2.46,11.64026,11.64026,0,0,1,1.97-.16,11.81194,11.81194,0,0,1,3.68.58A7.03642,7.03642,0,0,0,24.94,16a8.6843,8.6843,0,0,0-2.26-5.85A12.01619,12.01619,0,0,1,18.22,14.15Z"/></g></g></svg>